<?xml version="1.0" encoding="utf-8"?>
<!-- Generator: Adobe Illustrator 18.1.1, SVG Export Plug-In . SVG Version: 6.00 Build 0)  -->
<!DOCTYPE svg PUBLIC "-//W3C//DTD SVG 1.1//EN" "http://www.w3.org/Graphics/SVG/1.1/DTD/svg11.dtd">
<svg version="1.1" id="Layer_1" xmlns="http://www.w3.org/2000/svg" xmlns:xlink="http://www.w3.org/1999/xlink" x="0px" y="0px"
	 viewBox="0 0 600 400" enable-background="new 0 0 600 400" xml:space="preserve">
<text transform="matrix(1 0 0 1 39.8298 179.1844)" fill="#EA6E2F" font-family="'DroidSans'" font-size="30">.primary-header</text>
<text transform="matrix(1 0 0 1 309.8298 179.1844)" font-family="'DroidSans'" font-size="30"> </text>
<text transform="matrix(1 0 0 1 327.8298 179.1844)" fill="#205D76" font-family="'DroidSans'" font-size="30">{</text>
<text transform="matrix(1 0 0 1 39.8298 215.1844)" font-family="'DroidSans'" font-size="30" letter-spacing="16">  </text>
<text transform="matrix(1 0 0 1 111.8298 215.1844)" fill="#82CACD" font-family="'DroidSans'" font-size="30">background-color</text>
<text transform="matrix(1 0 0 1 399.8298 215.1844)" fill="#205D76" font-family="'DroidSans'" font-size="30">: </text>
<text transform="matrix(1 0 0 1 435.9298 215.1844)" fill="#A2A242" font-family="'DroidSans'" font-size="30">blue</text>
<text transform="matrix(1 0 0 1 507.9298 215.1844)" fill="#205D76" font-family="'DroidSans'" font-size="30">;</text>
<text transform="matrix(1 0 0 1 39.8298 251.1844)" fill="#205D76" font-family="'DroidSans'" font-size="30">}</text>
<path opacity="0.53" fill="#FFAAA8" enable-background="new    " d="M28.4,145.6c-12,15.8-8.8,38.3,7,50.3s38.3,8.8,50.3-7
	c11-14.6,9.2-34.9-3.6-47.3l8.3-11l6.3-0.9l27.1-35.8l-14.3-10.8l-27.1,35.8l0.9,6.3l-8.3,11C59.5,127.2,39.5,131,28.4,145.6z
	 M78.5,183.5c-9,11.9-25.8,14.2-37.7,5.2s-14.2-25.8-5.2-37.7s25.8-14.2,37.7-5.2C85.1,154.7,87.5,171.6,78.5,183.5z"/>
<path opacity="0.53" fill="#FFAAA8" enable-background="new    " d="M319.9,157.8c-7,9.3-5.2,22.6,4.1,29.7c9.3,7,22.6,5.2,29.7-4.1
	c6.5-8.6,5.4-20.6-2.1-27.9l4.9-6.5l3.7-0.5l16-21.1l-8.4-6.4l-16,21.1l0.5,3.7l-4.9,6.5C338.2,147,326.4,149.2,319.9,157.8z
	 M349.5,180.2c-5.3,7-15.2,8.4-22.2,3.1c-7-5.3-8.4-15.2-3.1-22.2s15.2-8.4,22.2-3.1C353.4,163.2,354.8,173.2,349.5,180.2z"/>
<path opacity="0.53" fill="#FFAAA8" enable-background="new    " d="M227.4,185.2c-13.3-12.1-33.9-11.2-46,2.1s-11.2,33.9,2.1,46
	c12.3,11.2,30.7,11.2,43,0.7l9.2,8.4l0.3,5.7l30,27.4l11-12l-30-27.4l-5.7,0.3l-9.2-8.4C241.4,214.8,239.7,196.4,227.4,185.2z
	 M189,227.2c-10-9.1-10.6-24.5-1.6-34.5c9.1-9.9,24.5-10.6,34.5-1.6c9.9,9.1,10.6,24.5,1.6,34.5C214.4,235.6,199,236.3,189,227.2z"
	/>
<path opacity="0.53" fill="#FFAAA8" enable-background="new    " d="M467,217.1c6.2-9.9,3.1-23-6.8-29.2s-23-3.1-29.2,6.8
	c-5.7,9.2-3.5,21,4.7,27.6l-4.3,6.9l-3.6,0.9l-14,22.5l9,5.6l14-22.5l-0.9-3.6l4.3-6.9C449.8,229.5,461.3,226.3,467,217.1z
	 M435.5,197.5c4.6-7.4,14.4-9.7,21.9-5.1c7.4,4.6,9.7,14.4,5.1,21.9c-4.6,7.4-14.4,9.7-21.9,5.1C433.2,214.8,430.9,205,435.5,197.5z
	"/>
<path opacity="0.53" fill="#FFAAA8" enable-background="new    " d="M537.6,202.6c-2.2-11.5-13.4-19-24.8-16.7
	c-11.5,2.2-19,13.4-16.7,24.8c2.1,10.6,11.7,17.8,22.2,17l1.6,8l-2.1,3.1l5.1,26l10.4-2l-5.1-26l-3.1-2.1l-1.6-8
	C533.5,223.5,539.7,213.2,537.6,202.6z M501.3,209.7c-1.7-8.6,3.9-16.9,12.5-18.6c8.6-1.7,16.9,3.9,18.6,12.5
	c1.7,8.6-3.9,16.9-12.5,18.6C511.3,224,502.9,218.3,501.3,209.7z"/>
</svg>
