<?xml version="1.0" encoding="utf-8"?>
<!-- Generator: Adobe Illustrator 18.1.1, SVG Export Plug-In . SVG Version: 6.00 Build 0)  -->
<svg version="1.1" id="Layer_1" xmlns="http://www.w3.org/2000/svg" xmlns:xlink="http://www.w3.org/1999/xlink" x="0px" y="0px"
	 viewBox="0 0 600 350" enable-background="new 0 0 600 350" xml:space="preserve">
<rect x="24.6" y="105.4" fill="none" width="565.9" height="126.9"/>
<text transform="matrix(1 0 0 1 24.5746 120.9869)"><tspan x="0" y="0" fill="#A2A242" font-family="'DroidSansMono'" font-size="20.4918">&lt;body&gt;</tspan><tspan x="0" y="49.2" fill="#A2A242" font-family="'DroidSansMono'" font-size="20.4918" letter-spacing="21">	</tspan><tspan x="33.5" y="49.2" fill="#A2A242" font-family="'DroidSansMono'" font-size="20.4918">&lt;p&gt;</tspan><tspan x="70.4" y="49.2" fill="#205D76" font-family="'DroidSansMono'" font-size="20.4918">This is the content for a paragraph.</tspan><tspan x="513.1" y="49.2" fill="#A2A242" font-family="'DroidSansMono'" font-size="20.4918">&lt;/p&gt;</tspan><tspan x="0" y="98.4" fill="#A2A242" font-family="'DroidSansMono'" font-size="20.4918">&lt;/body&gt;</tspan></text>
<path opacity="0.53" fill="#62D4D4" d="M60.9,138.7c-13.1,8.3-17,25.7-8.7,38.8s25.7,17,38.8,8.7c12.1-7.7,16.3-23.1,10.3-35.7
	l9.1-5.8l4.8,1.1L145,127l-7.5-11.9l-29.7,18.8l-1.1,4.8l-9.1,5.8C88.7,133.8,73,131.1,60.9,138.7z M87.3,180.3
	c-9.8,6.2-22.9,3.3-29.1-6.5c-6.2-9.8-3.3-22.9,6.5-29.1c9.8-6.2,22.9-3.3,29.1,6.5C100,161,97.1,174,87.3,180.3z"/>
<line fill="none" stroke="#FFC122" stroke-width="1.8629" stroke-miterlimit="10" x1="138.3" y1="117.1" x2="168.3" y2="66.7"/>
<line fill="none" stroke="#FF5774" stroke-width="1.9497" stroke-miterlimit="10" x1="24.6" y1="14.2" x2="24.6" y2="335.8"/>
<path opacity="0.53" fill="#62D4D4" d="M54.3,189.5c-12.5-9.2-30.1-6.4-39.3,6.1s-6.4,30.1,6.1,39.3c11.6,8.5,27.4,6.7,37-3.4
	l8.7,6.4l0.8,4.9l28.4,20.7l8.3-11.3l-28.4-20.7l-4.9,0.8l-8.7-6.4C69,213.6,65.8,198,54.3,189.5z M25.2,229.2
	c-9.4-6.9-11.5-20.1-4.6-29.5c6.9-9.4,20.1-11.5,29.5-4.6c9.4,6.9,11.5,20.1,4.6,29.5C47.8,234,34.6,236.1,25.2,229.2z"/>
<line fill="none" stroke="#FFC122" stroke-width="1.8629" stroke-miterlimit="10" x1="100.2" y1="257.5" x2="146.9" y2="292.9"/>
<path fill="#FAF8DA" stroke="#FFC122" stroke-width="2" stroke-miterlimit="10" d="M407.2,319.3H124.3c-2.8,0-5-2.2-5-5V259
	c0-2.8,2.2-5,5-5h282.9c2.8,0,5,2.2,5,5v55.3C412.2,317,410,319.3,407.2,319.3z"/>
<g>
	<rect x="128" y="266.8" fill="none" width="296.9" height="42.4"/>
	<text transform="matrix(1 0 0 1 128.0369 281.5888)"><tspan x="0" y="0" opacity="0.53" fill="#EA6E2F" font-family="'OpenSans'" font-size="19.4966">The closing body tag is on the </tspan><tspan x="0" y="23.4" opacity="0.53" fill="#EA6E2F" font-family="'OpenSans'" font-size="19.4966">same level as the opening tag.</tspan></text>
</g>
<path fill="#FAF8DA" stroke="#FFC122" stroke-width="2" stroke-miterlimit="10" d="M468.4,92.3H168.3c-2.8,0-5-2.2-5-5V37.6
	c0-2.8,2.2-5,5-5h300.1c2.8,0,5,2.2,5,5v49.6C473.4,90,471.1,92.3,468.4,92.3z"/>
<g>
	<rect x="173" y="42.5" fill="none" width="296.9" height="42.4"/>
	<text transform="matrix(1 0 0 1 173.015 57.3234)"><tspan x="0" y="0" opacity="0.53" fill="#EA6E2F" font-family="'OpenSans'" font-size="19.4966">The paragraph element is </tspan><tspan x="0" y="23.4" opacity="0.53" fill="#EA6E2F" font-family="'OpenSans'" font-size="19.4966">nested within the body element.</tspan></text>
</g>
</svg>
