<?xml version="1.0" encoding="utf-8"?>
<!-- Generator: Adobe Illustrator 18.1.1, SVG Export Plug-In . SVG Version: 6.00 Build 0)  -->
<svg version="1.1" id="Layer_1" xmlns="http://www.w3.org/2000/svg" xmlns:xlink="http://www.w3.org/1999/xlink" x="0px" y="0px"
	 viewBox="0 0 600 270" enable-background="new 0 0 600 270" xml:space="preserve">
<g>
	<rect x="29" y="85.2" fill="none" width="551" height="133.4"/>
	<text transform="matrix(1 0 0 1 29.0236 106.2379)"><tspan x="0" y="0" fill="#A2A242" font-family="'DroidSansMono'" font-size="27.643">&lt;img </tspan><tspan x="82.9" y="0" fill="#FFC122" font-family="'DroidSansMono'" font-size="27.643">src=</tspan><tspan x="149.3" y="0" fill="#82CACD" font-family="'DroidSansMono'" font-size="27.643">&quot;images/townheader.svg&quot;</tspan><tspan x="530.8" y="0" font-family="'DroidSansMono'" font-size="27.643"> </tspan><tspan x="0" y="40.3" fill="#FFC122" font-family="'DroidSansMono'" font-size="27.643">alt=</tspan><tspan x="66.4" y="40.3" fill="#82CACD" font-family="'DroidSansMono'" font-size="27.643">&quot;An illustration of Tuts Town </tspan><tspan x="0" y="80.6" fill="#82CACD" font-family="'DroidSansMono'" font-size="27.643">tower.&quot;</tspan><tspan x="116.1" y="80.6" font-family="'DroidSansMono'" font-size="27.643"> </tspan><tspan x="132.7" y="80.6" fill="#A2A242" font-family="'DroidSansMono'" font-size="27.643">/&gt;</tspan></text>
	<path opacity="0.5" fill="#EA6E2F" d="M200,194.5c8.6-13.6,4.5-31.6-9.2-40.2c-13.6-8.6-31.6-4.5-40.2,9.2c-7.9,12.6-5,28.9,6.2,38
		l-6,9.5l-5,1.1L126.4,243l12.3,7.8l19.4-30.9l-1.1-5l5.9-9.5C176.1,211.5,192,207,200,194.5z M156.7,167.3
		c6.4-10.2,19.9-13.3,30.2-6.9c10.2,6.4,13.3,19.9,6.9,30.2c-6.4,10.2-19.9,13.3-30.2,6.9C153.4,191,150.3,177.5,156.7,167.3z"/>
	<path opacity="0.5" fill="#EA6E2F" d="M39.6,59.2c-20.3,13.5-25.7,40.9-12.2,61.2s40.9,25.7,61.2,12.2
		c18.7-12.5,24.7-36.8,14.9-56.4l14.1-9.4l7.6,1.5l45.9-30.6l-12.3-18.3L113,49.9l-1.5,7.6L97.4,67C83,50.4,58.3,46.7,39.6,59.2z
		 M82.5,123.4c-15.2,10.2-35.8,6.1-45.9-9.1c-10.2-15.2-6.1-35.7,9.1-45.9c15.2-10.2,35.7-6.1,45.9,9.1
		C101.8,92.7,97.7,113.2,82.5,123.4z"/>
</g>
</svg>
