<?xml version="1.0" encoding="utf-8"?>
<!-- Generator: Adobe Illustrator 18.1.1, SVG Export Plug-In . SVG Version: 6.00 Build 0)  -->
<!DOCTYPE svg PUBLIC "-//W3C//DTD SVG 1.1//EN" "http://www.w3.org/Graphics/SVG/1.1/DTD/svg11.dtd">
<svg version="1.1" id="Layer_1" xmlns="http://www.w3.org/2000/svg" xmlns:xlink="http://www.w3.org/1999/xlink" x="0px" y="0px"
	 viewBox="0 53 400 294" enable-background="new 0 53 400 294" xml:space="preserve">
<line fill="none" stroke="#A2A242" stroke-width="5.5625" stroke-miterlimit="10" x1="164.9" y1="121.7" x2="228.7" y2="121.7"/>
<line fill="none" stroke="#FFC122" stroke-width="5.2558" stroke-miterlimit="10" x1="53.7" y1="179.1" x2="346.3" y2="179.1"/>
<line fill="none" stroke="#FFAAA8" stroke-width="5.2558" stroke-linecap="round" stroke-miterlimit="10" x1="267.5" y1="179.1" x2="267.5" y2="244.3"/>
<line fill="none" stroke="#FFAAA8" stroke-width="5.2558" stroke-miterlimit="10" x1="244.7" y1="271.3" x2="199.5" y2="271.3"/>
<rect x="244.7" y="244.3" fill="#FF5774" width="46.4" height="52.3"/>
<rect x="260.4" y="265.3" fill="none" width="24.6" height="14.9"/>
<g enable-background="new    ">
	<path fill="#205D76" d="M261.6,274.6v-8.8h1v8.8H261.6z"/>
	<path fill="#205D76" d="M269.9,272.3c0,0.8-0.3,1.4-0.8,1.8c-0.6,0.4-1.3,0.6-2.3,0.6c-1,0-1.8-0.1-2.4-0.4v-1
		c0.4,0.2,0.8,0.3,1.2,0.4c0.4,0.1,0.8,0.1,1.3,0.1c0.7,0,1.2-0.1,1.5-0.4c0.3-0.3,0.5-0.6,0.5-1.1c0-0.3-0.1-0.6-0.2-0.7
		c-0.1-0.2-0.3-0.4-0.6-0.5c-0.3-0.2-0.7-0.3-1.3-0.6c-0.8-0.3-1.4-0.6-1.7-1c-0.3-0.4-0.5-0.9-0.5-1.6c0-0.7,0.3-1.2,0.8-1.6
		s1.2-0.6,2-0.6c0.9,0,1.7,0.2,2.4,0.5l-0.3,0.9c-0.7-0.3-1.4-0.5-2.1-0.5c-0.5,0-1,0.1-1.3,0.3s-0.5,0.6-0.5,1
		c0,0.3,0.1,0.6,0.2,0.7c0.1,0.2,0.3,0.4,0.6,0.5c0.3,0.2,0.7,0.3,1.2,0.5c0.9,0.3,1.5,0.7,1.9,1.1
		C269.8,271.2,269.9,271.7,269.9,272.3z"/>
	<path fill="#205D76" d="M277.3,268.4c0,0.9-0.3,1.6-0.9,2c-0.6,0.5-1.5,0.7-2.6,0.7h-1v3.4h-1v-8.8h2.3
		C276.2,265.9,277.3,266.7,277.3,268.4z M272.8,270.3h0.9c0.9,0,1.6-0.1,2-0.4c0.4-0.3,0.6-0.8,0.6-1.4c0-0.6-0.2-1-0.6-1.3
		s-1-0.4-1.8-0.4h-1.1V270.3z"/>
</g>
<!-- <path fill="#EA6E2F" d="M191.8,257l-7.3-14.8c0,0,0-0.1-0.1-0.1c0.1-0.3,0.2-0.7,0.2-1.1v-23.2c0-1.9-1.5-3.7-3.4-3.7h-35.5
	c-1.9,0-3.4,1.8-3.4,3.7V241c0,0.4,0.1,0.7,0.2,1.1c0,0,0,0.1-0.1,0.1l-7.3,14.8c-0.5,0.9-0.5,2,0.1,2.8c0.5,0.8,1.3,1.3,2.4,1.3
	h51.7c1,0,1.9-0.5,2.4-1.3C192.2,259,192.2,257.9,191.8,257z M181.3,245.1c0.6,0,1,0.3,1,0.9s-0.5,0.9-1,0.9h-2.1
	c-0.6,0-1-0.3-1-0.9s0.5-0.9,1-0.9L181.3,245.1L181.3,245.1z M146.3,219.3c0-0.6,0.3-1.1,0.9-1.1h32.5c0.6,0,0.9,0.5,0.9,1.1v18.9
	c0,0.6-0.3,1.1-0.9,1.1h-32.5c-0.6,0-0.9-0.6-0.9-1.1V219.3L146.3,219.3z M176.7,245.9c0,0.6-0.5,0.9-1,0.9h-2.1c-0.6,0-1-0.3-1-0.9
	s0.5-0.9,1-0.9h2.1C176.3,245.1,176.7,245.4,176.7,245.9z M168.3,249.7h2.4c0.6,0,1,0.3,1,0.9c0,0.6-0.5,0.9-1,0.9h-2.4
	c-0.6,0-1-0.3-1-0.9C167.3,249.9,167.8,249.7,168.3,249.7z M167,245.9c0-0.6,0.5-0.9,1-0.9h2.1c0.6,0,1,0.3,1,0.9
	c0,0.6-0.5,0.9-1,0.9H168C167.5,246.8,167,246.5,167,245.9z M162.3,249.7h2.4c0.6,0,1,0.3,1,0.9c0,0.6-0.5,0.9-1,0.9h-2.4
	c-0.6,0-1-0.3-1-0.9C161.2,249.9,161.7,249.7,162.3,249.7z M161.4,245.9c0-0.6,0.5-0.9,1-0.9h2.1c0.6,0,1,0.3,1,0.9
	c0,0.6-0.5,0.9-1,0.9h-2.1C161.9,246.8,161.4,246.5,161.4,245.9z M158.9,246.8h-2.1c-0.6,0-1-0.3-1-0.9c0-0.6,0.5-0.9,1-0.9h2.1
	c0.6,0,1,0.3,1,0.9C159.9,246.5,159.5,246.8,158.9,246.8z M159.7,250.5c0,0.6-0.5,0.9-1,0.9h-2.4c-0.6,0-1-0.3-1-0.9
	c0-0.6,0.5-0.9,1-0.9h2.4C159.2,249.7,159.7,249.9,159.7,250.5z M154.3,245.9c0,0.6-0.5,0.9-1,0.9h-2.1c-0.6,0-1-0.3-1-0.9
	s0.5-0.9,1-0.9h2.1C153.9,245.1,154.3,245.4,154.3,245.9z M145.7,245.1h2.1c0.6,0,1,0.3,1,0.9s-0.5,0.9-1,0.9h-2.1
	c-0.6,0-1-0.3-1-0.9C144.6,245.4,145.1,245.1,145.7,245.1z M144.3,256.5h-2.9c-0.6,0-1-0.6-1-1.1c0-0.6,0.5-1.1,1-1.1h2.9
	c0.6,0,1,0.6,1,1.1C145.3,255.9,144.9,256.5,144.3,256.5z M144,251.4c-0.6,0-1-0.3-1-0.9c0-0.6,0.5-0.9,1-0.9h2.4c0.6,0,1,0.3,1,0.9
	c0,0.6-0.5,0.9-1,0.9H144z M151.2,256.5h-2.9c-0.6,0-1-0.6-1-1.1c0-0.6,0.5-1.1,1-1.1h2.9c0.6,0,1,0.6,1,1.1
	C152.2,255.9,151.7,256.5,151.2,256.5z M152.5,251.4h-2.4c-0.6,0-1-0.3-1-0.9c0-0.6,0.5-0.9,1-0.9h2.4c0.6,0,1,0.3,1,0.9
	C153.5,251.1,153.1,251.4,152.5,251.4z M171.8,256.5h-16.6c-0.6,0-1-0.6-1-1.1c0-0.6,0.5-1.1,1-1.1h16.6c0.6,0,1,0.6,1,1.1
	C172.8,255.9,172.3,256.5,171.8,256.5z M173.4,250.5c0-0.6,0.5-0.9,1-0.9h2.4c0.6,0,1,0.3,1,0.9c0,0.6-0.5,0.9-1,0.9h-2.4
	C173.9,251.4,173.4,251.1,173.4,250.5z M178.7,256.5h-2.9c-0.6,0-1-0.6-1-1.1c0-0.6,0.5-1.1,1-1.1h2.9c0.6,0,1,0.6,1,1.1
	C179.7,255.9,179.2,256.5,178.7,256.5z M179.5,250.5c0-0.6,0.5-0.9,1-0.9h2.4c0.6,0,1,0.3,1,0.9c0,0.6-0.5,0.9-1,0.9h-2.4
	C179.9,251.4,179.5,251.1,179.5,250.5z M185.5,256.5h-2.9c-0.6,0-1-0.6-1-1.1c0-0.6,0.5-1.1,1-1.1h2.9c0.6,0,1,0.6,1,1.1
	C186.5,255.9,186.1,256.5,185.5,256.5z"/> -->
<!-- <path fill="#FFFFFF" d="M145.7,218.9c0-0.6,0.3-1.1,0.9-1.1h33.6c0.6,0,0.9,0.5,0.9,1.1v19.5c0,0.6-0.3,1.2-0.9,1.2h-33.6
	c-0.6,0-0.9-0.6-0.9-1.2V218.9z"/> -->
<!-- <path fill="#000" d="M145.7,219.7v-1.2c0-0.6,0.3-1.1,0.9-1.1h33.6c0.6,0,0.9,0.5,0.9,1.1v1.2"/>
<g>
	<circle fill="#9D9E9D" cx="147.4" cy="218.5" r="0.5"/>
	<circle fill="#9D9E9D" cx="148.9" cy="218.5" r="0.5"/>
	<circle fill="#9D9E9D" cx="150.3" cy="218.5" r="0.5"/>
</g> -->
<line fill="none" stroke="#FFAAA8" stroke-width="5.8224" stroke-linecap="round" stroke-linejoin="round" stroke-miterlimit="10" x1="149.9" y1="179.4" x2="267.2" y2="179.1"/>
<line fill="none" stroke="#FFAAA8" stroke-width="5.2558" stroke-linecap="round" stroke-linejoin="round" stroke-miterlimit="10" x1="149.1" y1="136.7" x2="149.1" y2="179.4"/>
<g>
	<path fill="#205D76" d="M168.4,100.5c-0.5,0.2-10.7,5-10.7,5c-0.9,0.4-1.6,1.6-1.6,2.6v31.1c0,0.6,0.2,1,0.7,1
		c0.2,0,0.3-0.1,0.5-0.1l10.1-4.9c0.9-0.4,1.5-1.6,1.5-2.6v-31.1C168.9,100.9,168.9,100.3,168.4,100.5z"/>
	<path fill="#205D76" d="M167.1,100c1.1-0.5,0.9-0.9-0.2-0.9h-16.2c-1.1,0-3,0.3-4,0.8l-10.7,4.9c-1.1,0.5-1.9,1.8-1.9,2.9v31.5
		c0,1.1,0.8,2.2,2,2.2h16.6c1.1,0,2.1-1,2.1-2.2v-31.4c0-1.1,0.8-2.5,1.9-3L167.1,100z M149.4,119.5h-11v-1.3h11V119.5z
		 M149.4,116.5h-11v-1.3h11V116.5z M149.4,113.6h-11v-1.3h11V113.6z"/>
</g>
<!-- <rect x="147.2" y="227.3" fill="none" width="39" height="6.5"/> -->
<!-- <g enable-background="new    ">
	<path fill="#205D76" d="M148.6,231c0.1,0,0.1,0,0.2,0c0.1,0,0.1,0,0.2,0v0.3c0,0-0.1,0-0.2,0.1c-0.1,0-0.2,0-0.2,0
		c-0.6,0-0.8-0.3-0.8-0.9v-1.7h-0.4v-0.2l0.4-0.2l0.2-0.6h0.2v0.7h0.8v0.3h-0.8v1.7c0,0.2,0,0.3,0.1,0.4
		C148.3,231,148.5,231,148.6,231z"/>
	<path fill="#205D76" d="M150,228.5v1.9c0,0.2,0.1,0.4,0.2,0.5c0.1,0.1,0.3,0.2,0.5,0.2c0.3,0,0.5-0.1,0.7-0.2s0.2-0.4,0.2-0.8v-1.5
		h0.4v2.9h-0.4l-0.1-0.4h0c-0.1,0.1-0.2,0.2-0.4,0.3c-0.2,0.1-0.3,0.1-0.5,0.1c-0.3,0-0.6-0.1-0.8-0.2c-0.2-0.2-0.3-0.4-0.3-0.8
		v-1.9H150z"/>
	<path fill="#205D76" d="M153.8,231c0.1,0,0.1,0,0.2,0c0.1,0,0.1,0,0.2,0v0.3c0,0-0.1,0-0.2,0.1c-0.1,0-0.2,0-0.2,0
		c-0.6,0-0.8-0.3-0.8-0.9v-1.7h-0.4v-0.2l0.4-0.2l0.2-0.6h0.2v0.7h0.8v0.3h-0.8v1.7c0,0.2,0,0.3,0.1,0.4
		C153.5,231,153.6,231,153.8,231z"/>
	<path fill="#205D76" d="M156.6,230.5c0,0.3-0.1,0.5-0.3,0.6c-0.2,0.1-0.5,0.2-0.8,0.2c-0.4,0-0.7-0.1-0.9-0.2v-0.4
		c0.1,0.1,0.3,0.1,0.4,0.2c0.2,0,0.3,0.1,0.5,0.1c0.2,0,0.4,0,0.5-0.1c0.1-0.1,0.2-0.2,0.2-0.3c0-0.1,0-0.2-0.1-0.3
		s-0.3-0.2-0.6-0.3c-0.3-0.1-0.5-0.2-0.6-0.3c-0.1-0.1-0.2-0.2-0.2-0.3s-0.1-0.2-0.1-0.3c0-0.2,0.1-0.4,0.3-0.6
		c0.2-0.1,0.4-0.2,0.8-0.2c0.3,0,0.6,0.1,0.9,0.2l-0.2,0.4c-0.3-0.1-0.5-0.2-0.8-0.2c-0.2,0-0.4,0-0.5,0.1c-0.1,0.1-0.2,0.2-0.2,0.3
		c0,0.1,0,0.1,0.1,0.2s0.1,0.1,0.2,0.2c0.1,0,0.3,0.1,0.5,0.2c0.3,0.1,0.6,0.2,0.7,0.4S156.6,230.3,156.6,230.5z"/>
	<path fill="#205D76" d="M158.6,231.4c-0.2,0-0.4,0-0.5-0.1s-0.3-0.2-0.4-0.3h0c0,0.2,0,0.3,0,0.5v1.2h-0.4v-4.1h0.4l0.1,0.4h0
		c0.1-0.2,0.2-0.3,0.4-0.3c0.1-0.1,0.3-0.1,0.5-0.1c0.4,0,0.7,0.1,0.9,0.4c0.2,0.3,0.3,0.6,0.3,1.1c0,0.5-0.1,0.8-0.3,1.1
		C159.3,231.2,159,231.4,158.6,231.4z M158.5,228.8c-0.3,0-0.5,0.1-0.6,0.2c-0.1,0.2-0.2,0.4-0.2,0.8v0.1c0,0.4,0.1,0.7,0.2,0.9
		c0.1,0.2,0.3,0.3,0.6,0.3c0.2,0,0.4-0.1,0.6-0.3c0.1-0.2,0.2-0.5,0.2-0.8c0-0.4-0.1-0.6-0.2-0.8C159,228.9,158.8,228.8,158.5,228.8
		z"/>
	<path fill="#205D76" d="M161,231.3h-0.4v-4.1h0.4V231.3z"/>
	<path fill="#205D76" d="M162.3,228.5v1.9c0,0.2,0.1,0.4,0.2,0.5c0.1,0.1,0.3,0.2,0.5,0.2c0.3,0,0.5-0.1,0.7-0.2s0.2-0.4,0.2-0.8
		v-1.5h0.4v2.9h-0.4l-0.1-0.4h0c-0.1,0.1-0.2,0.2-0.4,0.3c-0.2,0.1-0.3,0.1-0.5,0.1c-0.3,0-0.6-0.1-0.8-0.2
		c-0.2-0.2-0.3-0.4-0.3-0.8v-1.9H162.3z"/>
	<path fill="#205D76" d="M167,230.5c0,0.3-0.1,0.5-0.3,0.6c-0.2,0.1-0.5,0.2-0.8,0.2c-0.4,0-0.7-0.1-0.9-0.2v-0.4
		c0.1,0.1,0.3,0.1,0.4,0.2c0.2,0,0.3,0.1,0.5,0.1c0.2,0,0.4,0,0.5-0.1c0.1-0.1,0.2-0.2,0.2-0.3c0-0.1,0-0.2-0.1-0.3
		s-0.3-0.2-0.6-0.3c-0.3-0.1-0.5-0.2-0.6-0.3c-0.1-0.1-0.2-0.2-0.2-0.3s-0.1-0.2-0.1-0.3c0-0.2,0.1-0.4,0.3-0.6
		c0.2-0.1,0.4-0.2,0.8-0.2c0.3,0,0.6,0.1,0.9,0.2l-0.2,0.4c-0.3-0.1-0.5-0.2-0.8-0.2c-0.2,0-0.4,0-0.5,0.1c-0.1,0.1-0.2,0.2-0.2,0.3
		c0,0.1,0,0.1,0.1,0.2s0.1,0.1,0.2,0.2c0.1,0,0.3,0.1,0.5,0.2c0.3,0.1,0.6,0.2,0.7,0.4S167,230.3,167,230.5z"/>
	<path fill="#205D76" d="M167.6,231c0-0.1,0-0.2,0.1-0.3c0.1-0.1,0.1-0.1,0.2-0.1c0.1,0,0.2,0,0.2,0.1c0.1,0.1,0.1,0.1,0.1,0.3
		c0,0.1,0,0.2-0.1,0.3s-0.1,0.1-0.2,0.1c-0.1,0-0.2,0-0.2-0.1S167.6,231.2,167.6,231z"/>
	<path fill="#205D76" d="M170.3,231.4c-0.4,0-0.7-0.1-1-0.4c-0.2-0.3-0.3-0.6-0.3-1.1c0-0.5,0.1-0.8,0.3-1.1s0.6-0.4,1-0.4
		c0.1,0,0.3,0,0.4,0c0.1,0,0.2,0.1,0.3,0.1l-0.1,0.4c-0.1,0-0.2-0.1-0.3-0.1c-0.1,0-0.2,0-0.3,0c-0.6,0-0.9,0.4-0.9,1.1
		c0,0.4,0.1,0.6,0.2,0.8c0.1,0.2,0.4,0.3,0.6,0.3c0.2,0,0.5-0.1,0.7-0.2v0.4C170.8,231.3,170.5,231.4,170.3,231.4z"/>
	<path fill="#205D76" d="M174.1,229.9c0,0.5-0.1,0.8-0.4,1.1s-0.6,0.4-1,0.4c-0.3,0-0.5-0.1-0.7-0.2c-0.2-0.1-0.4-0.3-0.5-0.5
		c-0.1-0.2-0.2-0.5-0.2-0.8c0-0.5,0.1-0.8,0.3-1.1c0.2-0.3,0.6-0.4,1-0.4c0.4,0,0.7,0.1,1,0.4C174,229.1,174.1,229.4,174.1,229.9z
		 M171.9,229.9c0,0.4,0.1,0.6,0.2,0.8c0.1,0.2,0.4,0.3,0.6,0.3s0.5-0.1,0.6-0.3c0.1-0.2,0.2-0.5,0.2-0.8c0-0.4-0.1-0.6-0.2-0.8
		s-0.4-0.3-0.6-0.3c-0.3,0-0.5,0.1-0.6,0.3C172,229.2,171.9,229.5,171.9,229.9z"/>
	<path fill="#205D76" d="M178.5,231.3v-1.9c0-0.2,0-0.4-0.1-0.5c-0.1-0.1-0.2-0.2-0.5-0.2c-0.3,0-0.5,0.1-0.6,0.2
		c-0.1,0.2-0.2,0.4-0.2,0.7v1.6h-0.4v-1.9c0-0.2,0-0.4-0.1-0.5c-0.1-0.1-0.2-0.2-0.5-0.2c-0.3,0-0.5,0.1-0.6,0.2
		c-0.1,0.2-0.2,0.4-0.2,0.8v1.5h-0.4v-2.9h0.4l0.1,0.4h0c0.1-0.1,0.2-0.2,0.3-0.3s0.3-0.1,0.5-0.1c0.4,0,0.7,0.2,0.9,0.5h0
		c0.1-0.1,0.2-0.3,0.4-0.4c0.2-0.1,0.3-0.1,0.6-0.1c0.3,0,0.6,0.1,0.7,0.2c0.2,0.2,0.2,0.4,0.2,0.8v1.9H178.5z"/>
</g> -->
<g>
	<g>
		<line fill="none" stroke="#EA6E2F" stroke-width="1.3139" stroke-miterlimit="10" x1="257.1" y1="207.7" x2="257.1" y2="235.9"/>
		<g>
			<polygon fill="#EA6E2F" points="252.7,208.9 257.1,201.4 261.4,208.9 			"/>
		</g>
	</g>
</g>
<g>
	<g>
		<line fill="none" stroke="#EA6E2F" stroke-width="1.3139" stroke-miterlimit="10" x1="230.5" y1="259.9" x2="209.1" y2="259.9"/>
		<g>
			<polygon fill="#EA6E2F" points="229.2,255.6 236.8,259.9 229.2,264.3 			"/>
		</g>
	</g>
</g>
<g>
	<g>
		<line fill="none" stroke="#EA6E2F" stroke-width="1.3127" stroke-miterlimit="10" x1="191.9" y1="189.5" x2="252" y2="189.5"/>
		<g>
			<polygon fill="#EA6E2F" points="193.1,193.9 185.6,189.5 193.1,185.1 			"/>
		</g>
	</g>
</g>
<g>
	<g>
		<line fill="none" stroke="#EA6E2F" stroke-width="1.3139" stroke-miterlimit="10" x1="138.4" y1="153.8" x2="138.4" y2="173.9"/>
		<g>
			<polygon fill="#EA6E2F" points="134,155.1 138.4,147.5 142.7,155.1 			"/>
		</g>
	</g>
</g>
<g>
	<g>
		<line fill="none" stroke="#EA6E2F" stroke-width="1.3139" stroke-miterlimit="10" x1="138.4" y1="153.8" x2="138.4" y2="173.9"/>
		<g>
			<polygon fill="#EA6E2F" points="134,155.1 138.4,147.5 142.7,155.1 			"/>
		</g>
	</g>
</g>
<g>
	<g>
		<line fill="none" stroke="#EA6E2F" stroke-width="1.3139" stroke-miterlimit="10" x1="138.4" y1="153.8" x2="138.4" y2="173.9"/>
		<g>
			<polygon fill="#EA6E2F" points="134,155.1 138.4,147.5 142.7,155.1 			"/>
		</g>
	</g>
</g>
<g>
	<g>
		<line fill="none" stroke="#EA6E2F" stroke-width="1.3139" stroke-miterlimit="10" x1="138.4" y1="153.8" x2="138.4" y2="173.9"/>
		<g>
			<polygon fill="#EA6E2F" points="134,155.1 138.4,147.5 142.7,155.1 			"/>
		</g>
	</g>
</g>
<g>
	<g>
		<line fill="none" stroke="#6B6C24" stroke-width="1.3139" stroke-miterlimit="10" x1="159.8" y1="165.9" x2="159.8" y2="145.7"/>
		<g>
			<polygon fill="#6B6C24" points="164.1,164.6 159.8,172.2 155.4,164.6 			"/>
		</g>
	</g>
</g>
<g>
	<g>
		<line fill="none" stroke="#6B6C24" stroke-width="1.3127" stroke-miterlimit="10" x1="245.7" y1="169.5" x2="185.6" y2="169.5"/>
		<g>
			<polygon fill="#6B6C24" points="244.4,165.1 252,169.5 244.4,173.8 			"/>
		</g>
	</g>
</g>
<g>
	<g>
		<line fill="none" stroke="#6B6C24" stroke-width="1.3139" stroke-miterlimit="10" x1="277.9" y1="229.6" x2="277.9" y2="201.4"/>
		<g>
			<polygon fill="#6B6C24" points="282.3,228.3 277.9,235.9 273.5,228.3 			"/>
		</g>
	</g>
</g>
<g>
	<path fill="#EA6E2F" d="M191.8,310.2l-7.3-14.8c0,0,0-0.1-0.1-0.1c0.1-0.3,0.2-0.7,0.2-1.1V271c0-1.9-1.5-3.7-3.4-3.7h-35.5
		c-1.9,0-3.4,1.8-3.4,3.7v23.2c0,0.4,0.1,0.7,0.2,1.1c0,0,0,0.1-0.1,0.1l-7.3,14.8c-0.5,0.9-0.5,2,0.1,2.8c0.5,0.8,1.3,1.3,2.4,1.3
		h51.7c1,0,1.9-0.5,2.4-1.3C192.2,312.3,192.2,311.1,191.8,310.2z M181.3,298.3c0.6,0,1,0.3,1,0.9c0,0.6-0.5,0.9-1,0.9h-2.1
		c-0.6,0-1-0.3-1-0.9c0-0.6,0.5-0.9,1-0.9H181.3z M146.3,272.5c0-0.6,0.3-1.1,0.9-1.1h32.5c0.6,0,0.9,0.5,0.9,1.1v18.9
		c0,0.6-0.3,1.1-0.9,1.1h-32.5c-0.6,0-0.9-0.6-0.9-1.1V272.5L146.3,272.5z M176.7,299.2c0,0.6-0.5,0.9-1,0.9h-2.1
		c-0.6,0-1-0.3-1-0.9c0-0.6,0.5-0.9,1-0.9h2.1C176.3,298.3,176.7,298.6,176.7,299.2z M168.3,302.9h2.4c0.6,0,1,0.3,1,0.9
		c0,0.6-0.5,0.9-1,0.9h-2.4c-0.6,0-1-0.3-1-0.9C167.3,303.2,167.8,302.9,168.3,302.9z M167,299.2c0-0.6,0.5-0.9,1-0.9h2.1
		c0.6,0,1,0.3,1,0.9c0,0.6-0.5,0.9-1,0.9H168C167.5,300.1,167,299.7,167,299.2z M162.3,302.9h2.4c0.6,0,1,0.3,1,0.9
		c0,0.6-0.5,0.9-1,0.9h-2.4c-0.6,0-1-0.3-1-0.9C161.2,303.2,161.7,302.9,162.3,302.9z M161.4,299.2c0-0.6,0.5-0.9,1-0.9h2.1
		c0.6,0,1,0.3,1,0.9c0,0.6-0.5,0.9-1,0.9h-2.1C161.9,300.1,161.4,299.7,161.4,299.2z M158.9,300.1h-2.1c-0.6,0-1-0.3-1-0.9
		c0-0.6,0.5-0.9,1-0.9h2.1c0.6,0,1,0.3,1,0.9C159.9,299.7,159.5,300.1,158.9,300.1z M159.7,303.8c0,0.6-0.5,0.9-1,0.9h-2.4
		c-0.6,0-1-0.3-1-0.9s0.5-0.9,1-0.9h2.4C159.2,302.9,159.7,303.2,159.7,303.8z M154.3,299.2c0,0.6-0.5,0.9-1,0.9h-2.1
		c-0.6,0-1-0.3-1-0.9c0-0.6,0.5-0.9,1-0.9h2.1C153.9,298.3,154.3,298.6,154.3,299.2z M145.7,298.3h2.1c0.6,0,1,0.3,1,0.9
		c0,0.6-0.5,0.9-1,0.9h-2.1c-0.6,0-1-0.3-1-0.9C144.6,298.6,145.1,298.3,145.7,298.3z M144.3,309.8h-2.9c-0.6,0-1-0.6-1-1.1
		c0-0.6,0.5-1.1,1-1.1h2.9c0.6,0,1,0.6,1,1.1C145.3,309.2,144.9,309.8,144.3,309.8z M144,304.6c-0.6,0-1-0.3-1-0.9
		c0-0.6,0.5-0.9,1-0.9h2.4c0.6,0,1,0.3,1,0.9c0,0.6-0.5,0.9-1,0.9H144z M151.2,309.8h-2.9c-0.6,0-1-0.6-1-1.1c0-0.6,0.5-1.1,1-1.1
		h2.9c0.6,0,1,0.6,1,1.1C152.2,309.2,151.7,309.8,151.2,309.8z M152.5,304.6h-2.4c-0.6,0-1-0.3-1-0.9c0-0.6,0.5-0.9,1-0.9h2.4
		c0.6,0,1,0.3,1,0.9C153.5,304.3,153.1,304.6,152.5,304.6z M171.8,309.8h-16.6c-0.6,0-1-0.6-1-1.1c0-0.6,0.5-1.1,1-1.1h16.6
		c0.6,0,1,0.6,1,1.1C172.8,309.2,172.3,309.8,171.8,309.8z M173.4,303.8c0-0.6,0.5-0.9,1-0.9h2.4c0.6,0,1,0.3,1,0.9s-0.5,0.9-1,0.9
		h-2.4C173.9,304.6,173.4,304.3,173.4,303.8z M178.7,309.8h-2.9c-0.6,0-1-0.6-1-1.1c0-0.6,0.5-1.1,1-1.1h2.9c0.6,0,1,0.6,1,1.1
		C179.7,309.2,179.2,309.8,178.7,309.8z M179.5,303.8c0-0.6,0.5-0.9,1-0.9h2.4c0.6,0,1,0.3,1,0.9s-0.5,0.9-1,0.9h-2.4
		C179.9,304.6,179.5,304.3,179.5,303.8z M185.5,309.8h-2.9c-0.6,0-1-0.6-1-1.1c0-0.6,0.5-1.1,1-1.1h2.9c0.6,0,1,0.6,1,1.1
		C186.5,309.2,186.1,309.8,185.5,309.8z"/>
	<path fill="#82CACD" d="M145.7,272.2c0-0.6,0.3-1.1,0.9-1.1h33.6c0.6,0,0.9,0.5,0.9,1.1v19.5c0,0.6-0.3,1.2-0.9,1.2h-33.6
		c-0.6,0-0.9-0.6-0.9-1.2V272.2z"/>
	<!-- <path fill="#000" d="M145.7,273v-1.2c0-0.6,0.3-1.1,0.9-1.1h33.6c0.6,0,0.9,0.5,0.9,1.1v1.2"/>
	<g>
		<circle fill="#9D9E9D" cx="147.4" cy="271.8" r="0.5"/>
		<circle fill="#9D9E9D" cx="148.9" cy="271.8" r="0.5"/>
		<circle fill="#9D9E9D" cx="150.3" cy="271.8" r="0.5"/>
	</g> -->
</g>
<g>
	<g>
		<line fill="none" stroke="#6B6C24" stroke-width="1.3139" stroke-miterlimit="10" x1="212.5" y1="282" x2="233.9" y2="282"/>
		<g>
			<polygon fill="#6B6C24" points="213.8,286.3 206.2,282 213.8,277.6 			"/>
		</g>
	</g>
</g>
<rect x="156" y="274.9" fill="none" width="39" height="6.5"/>
<!-- <g enable-background="new    ">
	<path fill="#205D76" d="M157.9,279h-0.6v-3.3h-1.1v-0.5h2.9v0.5h-1.1V279z"/>
	<path fill="#205D76" d="M161.6,279l-0.1-0.4h0c-0.1,0.1-0.2,0.2-0.4,0.3s-0.3,0.1-0.5,0.1c-0.4,0-0.6-0.1-0.8-0.3s-0.3-0.4-0.3-0.8
		v-1.9h0.6v1.8c0,0.2,0,0.4,0.1,0.5c0.1,0.1,0.2,0.2,0.4,0.2c0.3,0,0.5-0.1,0.6-0.2s0.2-0.4,0.2-0.8v-1.5h0.6v2.9H161.6z"/>
	<path fill="#205D76" d="M164.1,278.6c0.2,0,0.3,0,0.5-0.1v0.5c-0.1,0-0.2,0.1-0.3,0.1c-0.1,0-0.2,0-0.3,0c-0.6,0-0.9-0.3-0.9-0.9
		v-1.6h-0.4v-0.3l0.4-0.2l0.2-0.6h0.4v0.7h0.8v0.5h-0.8v1.6c0,0.2,0,0.3,0.1,0.3C163.9,278.5,164,278.6,164.1,278.6z"/>
	<path fill="#205D76" d="M167.1,278.2c0,0.3-0.1,0.5-0.3,0.7s-0.5,0.2-0.9,0.2c-0.4,0-0.7-0.1-0.9-0.2v-0.5c0.3,0.2,0.7,0.2,1,0.2
		c0.4,0,0.6-0.1,0.6-0.3c0-0.1,0-0.1-0.1-0.2s-0.1-0.1-0.2-0.2c-0.1-0.1-0.2-0.1-0.4-0.2c-0.3-0.1-0.6-0.3-0.7-0.4
		c-0.1-0.1-0.2-0.3-0.2-0.5c0-0.3,0.1-0.4,0.3-0.6c0.2-0.1,0.5-0.2,0.8-0.2c0.3,0,0.7,0.1,1,0.2l-0.2,0.5c-0.3-0.1-0.6-0.2-0.8-0.2
		c-0.3,0-0.5,0.1-0.5,0.3c0,0.1,0,0.2,0.1,0.2c0.1,0.1,0.3,0.2,0.6,0.3c0.2,0.1,0.4,0.2,0.5,0.3c0.1,0.1,0.2,0.2,0.2,0.3
		C167.1,277.9,167.1,278,167.1,278.2z"/>
	<path fill="#205D76" d="M168.7,277.3h-1.1v-0.5h1.1v-1.1h0.5v1.1h1.1v0.5h-1.1v1.1h-0.5V277.3z"/>
</g> -->
<rect x="149.8" y="282" fill="#FFC122" width="6.2" height="7.1"/>
<rect x="160.3" y="282" fill="#FAF8DA" width="6.2" height="7.1"/>
<rect x="170.9" y="282" fill="#FFC122" width="6.2" height="7.1"/>
<circle fill="#FFA09E" cx="256.7" cy="120.4" r="34.8"/>
<rect x="237.3" y="98" fill="#9D9E9D" width="39.1" height="45.7"/>
<rect x="242.6" y="105.5" fill="none" width="47.1" height="9.8"/>
<g enable-background="new    ">
	<path fill="#FFFFFF" d="M246.6,110.5l-3.6-1.6v-0.4l3.6-1.9v0.6l-2.8,1.4l2.8,1.2V110.5z"/>
	<path fill="#FFFFFF" d="M250.3,111.5v-2.7c0-0.3-0.1-0.6-0.2-0.8s-0.3-0.3-0.6-0.3c-0.2,0-0.4,0-0.5,0.1c-0.1,0.1-0.3,0.2-0.3,0.3
		c-0.1,0.1-0.1,0.3-0.2,0.5c0,0.2-0.1,0.4-0.1,0.7v2.2h-0.7v-6h0.7v1.8l0,0.6h0c0.1-0.1,0.1-0.2,0.2-0.3c0.1-0.1,0.2-0.1,0.3-0.2
		c0.1-0.1,0.2-0.1,0.3-0.1c0.1,0,0.2,0,0.4,0c0.5,0,0.8,0.1,1.1,0.4s0.4,0.6,0.4,1.2v2.8H250.3z"/>
	<path fill="#FFFFFF" d="M253.5,111c0,0,0.1,0,0.2,0c0.1,0,0.1,0,0.2,0c0.1,0,0.1,0,0.1,0s0.1,0,0.1,0v0.5c0,0-0.1,0-0.1,0
		c-0.1,0-0.1,0-0.2,0c-0.1,0-0.1,0-0.2,0c-0.1,0-0.1,0-0.2,0c-0.2,0-0.3,0-0.4-0.1s-0.3-0.1-0.4-0.2s-0.2-0.2-0.2-0.4
		c-0.1-0.2-0.1-0.4-0.1-0.6v-2.5h-0.6v-0.3l0.6-0.3l0.3-0.9h0.4v1h1.1v0.5H253v2.5c0,0.2,0,0.4,0.1,0.6
		C253.2,110.9,253.4,111,253.5,111z"/>
	<path fill="#FFFFFF" d="M260,111.5v-2.7c0-0.3-0.1-0.6-0.2-0.8c-0.1-0.2-0.3-0.3-0.6-0.3c-0.2,0-0.3,0-0.5,0.1
		c-0.1,0.1-0.2,0.1-0.3,0.3c-0.1,0.1-0.1,0.3-0.2,0.4c0,0.2-0.1,0.4-0.1,0.6v2.3h-0.7v-2.7c0-0.3-0.1-0.6-0.2-0.8
		c-0.1-0.2-0.3-0.3-0.6-0.3c-0.2,0-0.4,0-0.5,0.1c-0.1,0.1-0.2,0.2-0.3,0.3c-0.1,0.1-0.1,0.3-0.2,0.5c0,0.2-0.1,0.4-0.1,0.7v2.2
		h-0.7v-4.2h0.6l0.1,0.6h0c0.1-0.1,0.1-0.2,0.2-0.3c0.1-0.1,0.2-0.1,0.3-0.2c0.1-0.1,0.2-0.1,0.3-0.1c0.1,0,0.2,0,0.3,0
		c0.3,0,0.6,0.1,0.8,0.2s0.4,0.3,0.5,0.5h0c0.1-0.1,0.1-0.2,0.2-0.3c0.1-0.1,0.2-0.2,0.3-0.2c0.1-0.1,0.2-0.1,0.4-0.1s0.2,0,0.4,0
		c0.4,0,0.8,0.1,1,0.4s0.3,0.6,0.3,1.2v2.8H260z"/>
	<path fill="#FFFFFF" d="M262.7,111.5H262v-6h0.7V111.5z"/>
	<path fill="#FFFFFF" d="M263.8,109.9l2.8-1.2l-2.8-1.4v-0.6l3.6,1.9v0.4l-3.6,1.6V109.9z"/>
</g>
<rect x="239.9" y="127.3" fill="none" width="67.9" height="23.5"/>
<g enable-background="new    ">
	<path fill="#FFFFFF" d="M243.9,132.4l-3.6-1.6v-0.4l3.6-1.9v0.6l-2.8,1.4l2.8,1.2V132.4z"/>
	<path fill="#FFFFFF" d="M247.1,127.7l-2.1,5.6h-0.7l2.1-5.6H247.1z"/>
	<path fill="#FFFFFF" d="M250.5,133.3v-2.7c0-0.3-0.1-0.6-0.2-0.8s-0.3-0.3-0.6-0.3c-0.2,0-0.4,0-0.5,0.1c-0.1,0.1-0.3,0.2-0.3,0.3
		c-0.1,0.1-0.1,0.3-0.2,0.5c0,0.2-0.1,0.4-0.1,0.7v2.2h-0.7v-6h0.7v1.8l0,0.6h0c0.1-0.1,0.1-0.2,0.2-0.3c0.1-0.1,0.2-0.1,0.3-0.2
		c0.1-0.1,0.2-0.1,0.3-0.1c0.1,0,0.2,0,0.4,0c0.5,0,0.8,0.1,1.1,0.4s0.4,0.6,0.4,1.2v2.8H250.5z"/>
	<path fill="#FFFFFF" d="M253.8,132.8c0,0,0.1,0,0.2,0c0.1,0,0.1,0,0.2,0c0.1,0,0.1,0,0.1,0s0.1,0,0.1,0v0.5c0,0-0.1,0-0.1,0
		c-0.1,0-0.1,0-0.2,0c-0.1,0-0.1,0-0.2,0c-0.1,0-0.1,0-0.2,0c-0.2,0-0.3,0-0.4-0.1s-0.3-0.1-0.4-0.2s-0.2-0.2-0.2-0.4
		c-0.1-0.2-0.1-0.4-0.1-0.6v-2.5H252v-0.3l0.6-0.3l0.3-0.9h0.4v1h1.1v0.5h-1.1v2.5c0,0.2,0,0.4,0.1,0.6
		C253.5,132.8,253.6,132.8,253.8,132.8z"/>
	<path fill="#FFFFFF" d="M260.3,133.3v-2.7c0-0.3-0.1-0.6-0.2-0.8c-0.1-0.2-0.3-0.3-0.6-0.3c-0.2,0-0.3,0-0.5,0.1
		c-0.1,0.1-0.2,0.1-0.3,0.3c-0.1,0.1-0.1,0.3-0.2,0.4c0,0.2-0.1,0.4-0.1,0.6v2.3h-0.7v-2.7c0-0.3-0.1-0.6-0.2-0.8
		c-0.1-0.2-0.3-0.3-0.6-0.3c-0.2,0-0.4,0-0.5,0.1c-0.1,0.1-0.2,0.2-0.3,0.3c-0.1,0.1-0.1,0.3-0.2,0.5c0,0.2-0.1,0.4-0.1,0.7v2.2
		h-0.7v-4.2h0.6l0.1,0.6h0c0.1-0.1,0.1-0.2,0.2-0.3c0.1-0.1,0.2-0.1,0.3-0.2c0.1-0.1,0.2-0.1,0.3-0.1c0.1,0,0.2,0,0.3,0
		c0.3,0,0.6,0.1,0.8,0.2s0.4,0.3,0.5,0.5h0c0.1-0.1,0.1-0.2,0.2-0.3c0.1-0.1,0.2-0.2,0.3-0.2c0.1-0.1,0.2-0.1,0.4-0.1s0.2,0,0.4,0
		c0.4,0,0.8,0.1,1,0.4s0.3,0.6,0.3,1.2v2.8H260.3z"/>
	<path fill="#FFFFFF" d="M263,133.3h-0.7v-6h0.7V133.3z"/>
	<path fill="#FFFFFF" d="M264,131.8l2.8-1.2l-2.8-1.4v-0.6l3.6,1.9v0.4l-3.6,1.6V131.8z"/>
</g>
</svg>
